<mxfile host="app.diagrams.net" agent="Mozilla/5.0 (Macintosh; Intel Mac OS X 10_15_7) AppleWebKit/537.36 (KHTML, like Gecko) Chrome/131.0.0.0 Safari/537.36" version="26.0.11">
  <diagram name="第 1 页" id="JlFNOf8IUsEFIzv1AH-l">
    <mxGraphModel dx="1242" dy="785" grid="0" gridSize="10" guides="1" tooltips="1" connect="1" arrows="1" fold="1" page="1" pageScale="1" pageWidth="827" pageHeight="1169" math="0" shadow="0">
      <root>
        <mxCell id="0" />
        <mxCell id="1" parent="0" />
        <mxCell id="5dFx6CAcF43WBRuaXjPJ-1" value="用户" style="shape=umlActor;verticalLabelPosition=bottom;verticalAlign=top;html=1;" vertex="1" parent="1">
          <mxGeometry x="115" y="355" width="30" height="60" as="geometry" />
        </mxCell>
        <mxCell id="5dFx6CAcF43WBRuaXjPJ-2" value="" style="rounded=0;whiteSpace=wrap;html=1;" vertex="1" parent="1">
          <mxGeometry x="213" y="137" width="403" height="574" as="geometry" />
        </mxCell>
        <mxCell id="5dFx6CAcF43WBRuaXjPJ-3" value="计划管理模块" style="text;html=1;align=center;verticalAlign=middle;whiteSpace=wrap;rounded=0;" vertex="1" parent="1">
          <mxGeometry x="364" y="137" width="99" height="30" as="geometry" />
        </mxCell>
        <mxCell id="5dFx6CAcF43WBRuaXjPJ-4" value="聚合展示多视图" style="ellipse;whiteSpace=wrap;html=1;" vertex="1" parent="1">
          <mxGeometry x="226" y="353" width="100" height="50" as="geometry" />
        </mxCell>
        <mxCell id="5dFx6CAcF43WBRuaXjPJ-5" value="" style="endArrow=none;html=1;rounded=0;exitX=1;exitY=0.3333333333333333;exitDx=0;exitDy=0;exitPerimeter=0;entryX=0;entryY=0.5;entryDx=0;entryDy=0;" edge="1" parent="1" source="5dFx6CAcF43WBRuaXjPJ-1" target="5dFx6CAcF43WBRuaXjPJ-4">
          <mxGeometry width="50" height="50" relative="1" as="geometry">
            <mxPoint x="142" y="385" as="sourcePoint" />
            <mxPoint x="224" y="370" as="targetPoint" />
          </mxGeometry>
        </mxCell>
        <mxCell id="5dFx6CAcF43WBRuaXjPJ-6" value="开启多迭代聚合管理" style="ellipse;whiteSpace=wrap;html=1;" vertex="1" parent="1">
          <mxGeometry x="226" y="188" width="100" height="50" as="geometry" />
        </mxCell>
        <mxCell id="5dFx6CAcF43WBRuaXjPJ-7" value="删除自动化规则" style="ellipse;whiteSpace=wrap;html=1;" vertex="1" parent="1">
          <mxGeometry x="226" y="555" width="100" height="50" as="geometry" />
        </mxCell>
        <mxCell id="5dFx6CAcF43WBRuaXjPJ-8" value="复制自动化规则" style="ellipse;whiteSpace=wrap;html=1;" vertex="1" parent="1">
          <mxGeometry x="226" y="458" width="100" height="50" as="geometry" />
        </mxCell>
        <mxCell id="5dFx6CAcF43WBRuaXjPJ-9" value="" style="endArrow=none;html=1;rounded=0;exitX=1;exitY=0.3333333333333333;exitDx=0;exitDy=0;exitPerimeter=0;entryX=0;entryY=0.5;entryDx=0;entryDy=0;" edge="1" parent="1" source="5dFx6CAcF43WBRuaXjPJ-1" target="5dFx6CAcF43WBRuaXjPJ-7">
          <mxGeometry width="50" height="50" relative="1" as="geometry">
            <mxPoint x="155" y="385" as="sourcePoint" />
            <mxPoint x="252" y="632" as="targetPoint" />
          </mxGeometry>
        </mxCell>
        <mxCell id="5dFx6CAcF43WBRuaXjPJ-10" value="" style="endArrow=none;html=1;rounded=0;exitX=1;exitY=0.3333333333333333;exitDx=0;exitDy=0;exitPerimeter=0;entryX=0;entryY=0.5;entryDx=0;entryDy=0;" edge="1" parent="1" source="5dFx6CAcF43WBRuaXjPJ-1" target="5dFx6CAcF43WBRuaXjPJ-8">
          <mxGeometry width="50" height="50" relative="1" as="geometry">
            <mxPoint x="155" y="385" as="sourcePoint" />
            <mxPoint x="252" y="553" as="targetPoint" />
          </mxGeometry>
        </mxCell>
        <mxCell id="5dFx6CAcF43WBRuaXjPJ-11" value="" style="endArrow=none;html=1;rounded=0;entryX=0;entryY=0.5;entryDx=0;entryDy=0;exitX=1;exitY=0.3333333333333333;exitDx=0;exitDy=0;exitPerimeter=0;" edge="1" parent="1" source="5dFx6CAcF43WBRuaXjPJ-1" target="5dFx6CAcF43WBRuaXjPJ-6">
          <mxGeometry width="50" height="50" relative="1" as="geometry">
            <mxPoint x="146" y="375" as="sourcePoint" />
            <mxPoint x="252" y="473" as="targetPoint" />
          </mxGeometry>
        </mxCell>
      </root>
    </mxGraphModel>
  </diagram>
</mxfile>
